<svg xmlns="http://www.w3.org/2000/svg" xmlns:xlink="http://www.w3.org/1999/xlink" width="100mm" height="50mm" viewBox="0 0 354.33071 177.16535"><path fill="#f6f4f4" stroke="gray" stroke-width=".915" d="M13.587 8.241h345.557v180.397H13.587z"/><path d="M132.5 71.808l68.929-38.571 58.214-16.429 88.214 105.357L305 152.88l-10 26.071H51.786l-26.786-50 93.214-50.714" fill="none" stroke="#999" stroke-width="6"/><image xlink:href="arrow_down.png" transform="rotate(-30.735)" width="29.091" height="28.656" preserveAspectRatio="none" x="63.875" y="95.78"/><image xlink:href="arrow_up.png" transform="rotate(-28.803)" width="29.332" height="30.626" preserveAspectRatio="none" x="52.263" y="89.51"/><image xlink:href="orig.png" width="347.422" height="203.27" preserveAspectRatio="none" x="3.472" y="-15.51"/><rect width="54.675" height="17.551" x="41.29" y="54.053" rx="2.4" fill="#ff8080"/><text style="line-height:125%;-inkscape-font-specification:sans-serif" x="43.689" y="67.059" font-weight="400" font-size="12.5" font-family="sans-serif" letter-spacing="0" word-spacing="0" fill="#efa"><tspan x="43.689" y="67.059" style="-inkscape-font-specification:'Takao Gothic'" font-family="Takao Gothic">池之端門</tspan></text><g fill="#ccc" fill-rule="evenodd" stroke="gray"><path d="M287.5 57.165l-16.429 7.143-35.357-7.857-11.428-20.357 42.857-1.071zM147.857 78.237l13.929 18.571 27.143-7.143 15-16.071 25.714-15.357-12.5-21.072zM70.273 157.804l34.783-21.045s10.101-4.04 17.678-3.535c7.576.505 12.626 3.03 12.626 3.03l.506-4.546s-2.02-9.09-7.072-12.121c-5.05-3.03-20.203-3.03-20.203-3.03l-9.795-11.571-43.282 27.855zM274.033 65.127v26.786l-30.357 20.357 11.429 14.643 38.214-25 7.143-21.072-13.572-19.285zM214.643 154.665s-11.429-1.785-10.357-11.071c1.071-9.286 7.143-12.143 7.143-12.143l10.357-2.5 18.928-12.857L250 127.165l-26.071 16.429zM177.5 160.38s-4.643-1.429-4.286-2.858c.357-1.428 1.072-8.214 5.715-8.214 4.642 0 7.857-.357 7.857 2.857 0 3.215-9.286 8.215-9.286 8.215zM221.071 103.951l41.072-25s2.857-4.286-.357-8.571c-3.215-4.286-7.857-2.143-7.857-2.143l-51.786 28.928-16.447 19.433 6.205 7.833 19.528-12.98z"/></g><g fill="none" stroke="gray"><path d="M287.428 57.125l-16.429 7.143-35.357-7.858-11.428-20.357 42.857-1.071zM147.85 78.038L161.78 96.61l27.142-7.143 15-16.072 25.715-15.357-12.5-21.071zM70.173 157.923l34.783-21.044s10.102-4.04 17.678-3.536c7.576.505 12.627 3.03 12.627 3.03l.505-4.545s-2.02-9.091-7.071-12.122c-5.05-3.03-20.203-3.03-20.203-3.03l-9.795-11.57-43.283 27.855zM274.192 64.932v26.786l-30.357 20.357 11.428 14.643 38.215-25 7.143-21.071-13.572-19.286zM214.657 154.73s-11.429-1.785-10.358-11.071c1.072-9.286 7.143-12.143 7.143-12.143l10.357-2.5 18.929-12.857 9.286 11.071-26.072 16.429zM177.509 160.367s-4.643-1.428-4.286-2.857c.357-1.428 1.072-8.214 5.715-8.214 4.642 0 7.857-.357 7.857 2.857 0 3.214-9.286 8.214-9.286 8.214z"/></g><g transform="translate(0 -875.197)"><circle cx="223.571" cy="1007.005" r="17.143" fill="#e9ddaf"/><circle cx="194.107" cy="1038.612" r="17.143" fill="#aef"/><circle cx="91.071" cy="1002.362" r="17.143" fill="#f4e3d7"/><circle cx="190" cy="943.791" r="17.143" fill="#afe9c6"/><circle cx="276.786" cy="978.791" r="17.143" fill="#afa"/><circle cx="256.786" cy="925.219" r="17.143" fill="#d7d7f4"/></g><g><image xlink:href="animalface_kirin.png" width="30.37" height="30.748" preserveAspectRatio="none" x="174.697" y="929.389" transform="translate(0 -875.197)"/><image xlink:href="animalface_kaba.png" width="33.384" height="33.268" preserveAspectRatio="none" x="240.13" y="908.543" transform="translate(0 -875.197)"/><image xlink:href="animal_shimauma.png" width="30.079" height="30.204" preserveAspectRatio="none" x="261.312" y="963.178" transform="translate(0 -875.197)"/><image xlink:href="penguin03_gentoo.png" width="23.625" height="33.041" preserveAspectRatio="none" x="183.009" y="1021.377" transform="translate(0 -875.197)"/><image xlink:href="animal_kangaroo.png" width="23.114" height="26.352" preserveAspectRatio="none" x="211.948" y="993.697" transform="translate(0 -875.197)"/><image xlink:href="hebi_blue.png" width="28.289" height="29.375" preserveAspectRatio="none" x="75.986" y="110.27"/></g><g font-weight="400" font-size="12.5" font-family="Sans" letter-spacing="0" word-spacing="0"><text transform="translate(0 -875.197)" style="line-height:125%" x="136.786" y="1050.219"><tspan x="136.786" y="1050.219">ペンギン</tspan></text><text transform="translate(0 -875.197)" style="line-height:125%" x="228.571" y="1027.719"><tspan x="228.571" y="1027.719">カンガルー</tspan></text><text style="line-height:125%" x="257.893" y="130.686"><tspan x="257.893" y="130.686">シマウマ</tspan></text><text style="line-height:125%" x="243.929" y="73.926"><tspan x="243.929" y="73.926">カバ</tspan></text><text style="line-height:125%" x="175.638" y="91.115"><tspan x="175.638" y="91.115">キリン</tspan></text><text style="line-height:125%" x="89.643" y="150.38"><tspan x="89.643" y="150.38">ヘビ</tspan></text></g></svg>